# xmcd
#
# Track frame offsets: 
#        150
#        13862
#        26950
#        39787
#        51725
#        69162
#        83872
#        97965
#        109512
#        127517
#        135817
#        136745
#        137757
#        139195
#        140482
#        141455
#        142245
#
# Disc length: 2137 seconds
#
# Revision: 2
# Processed by: cddbd v1.4PL0 Copyright (c) Steve Scherf et al.
# Submitted via: ExactAudioCopy v0.95a3
#
DISCID=f3085711
DTITLE=Bob Log III - Trike
DYEAR=1999
DGENRE=Blues
TTITLE0=Showtime
TTITLE1=Clap Your Tits
TTITLE2=You Wanna What
TTITLE3=Six Stringer Kicker
TTITLE4=Booby Trap #2
TTITLE5=Daddy Log's Drive In Candy Hoppin' Car Babes (M. Guano Mix)
TTITLE6=Borgnignin
TTITLE7=Log Dirty Down
TTITLE8=Ass Computer
TTITLE9=Bacon
TTITLE10=Claps
TTITLE11=Claps
TTITLE12=Claps
TTITLE13=Claps
TTITLE14=Claps
TTITLE15=Claps
TTITLE16=Booby Trap #1
EXTD=
EXTT0=
EXTT1=
EXTT2=
EXTT3=
EXTT4=
EXTT5=
EXTT6=
EXTT7=
EXTT8=
EXTT9=
EXTT10=
EXTT11=
EXTT12=
EXTT13=
EXTT14=
EXTT15=
EXTT16=
PLAYORDER=
